<svg id="Layer_1" data-name="Layer 1" xmlns="http://www.w3.org/2000/svg" width="8.5606in" height="2.6708in" viewBox="0 0 616.3614 192.2969"><title>partner</title><path d="M442.0041,45.2525s-11.9316-.0074-17.3242.0229c-5.1309.0278-6.7383,3.165-7.2783,5.5791l-16.0127,61.0493c-1.0235,4.4619,1.9062,5.0635,3.6953,5.1319,0,0,11.9336.0107,17.3223-.0186,5.26-.0312,6.7714-3.32,7.2714-5.751L445.7,50.3853C446.7248,45.9238,443.7971,45.3237,442.0041,45.2525Z" fill="#fff"/><path d="M448.5617,19.5474s-11.9336-.0088-17.3252.021c-5.1318.03-6.7373,3.1665-7.2773,5.581l-2.2471,8.7315c-1.0263,4.4575,1.9014,5.0605,3.6924,5.13,0,0,11.9365.0088,17.3252-.021,5.2549-.0293,6.7695-3.3189,7.2686-5.75l2.2548-8.56C453.2805,20.22,450.3537,19.6192,448.5617,19.5474Z" fill="#fff"/><path d="M330.6252,59.1514c.4971-1.876,3.1211-13.7652-7.35-13.752l-28.4629.0249L305.3664,5.543c1.0254-4.4585-1.9033-5.0591-3.6943-5.13,0,0-11.9341-.0068-17.3208.021-5.1367.0278-6.74,3.1665-7.2808,5.5791l-28.01,106.0791c-1.0249,4.459,1.9028,5.0625,3.6938,5.1318,0,0,11.9326.0069,17.3232-.0214,5.2559-.0313,6.7706-3.3174,7.272-5.752L291.2937,58.74l6.4985-.0083c2.4063-.003,5.4707.65,4.5537,4.3549,0,0-12.206,46.4463-12.2329,46.627l-.0088.0293.0044.001c-.8169,5.5927,4.4043,7.53,8.11,7.497l19.7773-.0244c3.334-.13,4.5518-2.4726,2.6621-4.8535-1.4736-1.8535-2.8047-4.3135-1.6211-9.22Z" fill="#fff"/><path d="M404.9211,45.2993s-9.7226-.0107-15.1162.0186c-5.1338.0288-6.6816,3.1689-7.2783,5.5781L370.91,95.2075c-3.2373,11.6778-10.918,11.2618-12.6866,11.2637l-1.5107.0029,14.7324-56c1.0274-4.4594-1.9043-5.0595-3.6933-5.1289,0,0-11.9336-.0088-17.32.022-5.1387.0288-6.6709,3.1719-7.28,5.5781l-16.0127,61.0484c-1.06,4.4472,1.9023,5.0644,3.6914,5.1338,0,0,29.2656-.0352,31.1592-.0391,30.3291-.0361,34.8486-21.6855,35.9258-26.02l10.7-40.6363C409.6418,45.97,406.7121,45.3687,404.9211,45.2993Z" fill="#fff"/><path d="M491.7756.1782s-11.9287-.0083-17.32.023c-5.1358.0278-6.6006,3.1211-7.2774,5.58L439.1643,111.8579c-1.0244,4.46,1.9023,5.1221,3.6972,5.1914l25.8018-.0185c3.335-.1289,4.5518-2.4737,2.6621-4.8545-1.58-1.9883-2.6514-5.1924-1.5986-9.5332h-.0049L495.4729,5.31C496.5783.8638,493.57.2486,491.7756.1782Z" fill="#fff"/><path d="M532.758,2.1162s-11.872.2364-17.2373.378c-5.1094.1367-6.6289,3.436-7.3623,5.9565L465.2942,165.813c-1.1182,4.666,1.708,5.3076,3.4912,5.3467l25.748-.5684c3.3223-.2011,4.582-2.6679,2.7559-5.1074-1.5332-2.0391-2.5293-5.35-1.3907-9.8887l-.0039-.0009L536.3254,7.38C537.4914,2.7373,534.54,2.1529,532.758,2.1162Z" fill="#fff"/><path d="M167.114,45.5562s-48.1753.0678-48.1987.0669c-5.1329.0307-12.1675,3.3115-13.6265,9.688,0,0-2.814,10.6616-2.8,10.62-1.16,4.4189,2.5068,4.873,3.1933,4.87l18.52-.021a6.5743,6.5743,0,0,0,5.7807-3.25,5.8722,5.8722,0,0,0,.7749-2.01,19.8078,19.8078,0,0,1,.4986-1.9589c.9135-2.5005,1.1084-5.439,5.1381-6.5689a20.5247,20.5247,0,0,1,3.9888-.4409l.1338-.002a17.6772,17.6772,0,0,1,3.9927.4322c4.0166,1.1172,3.3486,4.5405,3.1626,5.5385l-3.645,13.9034-36.5567.0825c-2.4057.0014-7.8008,1.22-9.4751,6.4175l-7.063,26.4775c-1.2842,6.043,4.17,8.1211,8.0049,8.083l63.2988-.084c3.3355-.1308,4.5528-2.4746,2.6626-4.8545-1.5805-1.9892-2.6518-5.1953-1.5981-9.5312l13.1392-50.07C177.654,47.8491,174.8015,45.5469,167.114,45.5562Zm-30.77,60.1679-12.457.0049a2.7955,2.7955,0,0,1-2.4922-1.1133,4.7631,4.7631,0,0,1-.5752-3.4023c.062-.3887.3135-1.4717.9776-4.0977.437-1.73,1.0117-4.042,1.5727-5.69a6.6693,6.6693,0,0,1,1.9668-3.1035,6.2432,6.2432,0,0,1,4.1-1.6123l11.9463-.0142Z" fill="#fff"/><path d="M525.5656,117.0679s3.9131-.0088,9.2989-.0108c.0527-.0009.1045-.0058.1591-.0068l34.2081-.043c1.0546,0,2.14,0,3.2119-.0029l1.2539-.0029-.0039-.0039c.0254.0019.0488.001.0722.001,5.1348-.0293,12.168-3.3116,13.63-9.6875l2.916-11.0411c-.0185.045-.041.0879-.0537.1309.7119-4.3145-2.5713-4.582-3.2578-4.5811l-16.51.0206a6.6,6.6,0,0,0-6.5556,5.2578c-.2422,1.0673-.3418,1.4492-.4756,1.9492-.165.6289-1.13,5.4492-5.1592,6.581a17.4431,17.4431,0,0,1-3.9892.4424l-2.1485.002h0a6.9236,6.9236,0,0,1-2.082-.336c-4.0117-1.1425-3.2246-4.7548-2.9356-6.1113l3.5225-13.4263,31.8691-.0385-.0009-.0411,2.6767-.0014c2.8946.03,7.9873-1.6856,9.3028-5.75l5.5273-20.7827,1.709-6.3618c1.2832-6.044-4.1719-8.12-8.0059-8.085l-49.8711.0684c-1.874.0029-10.8125,1.2363-13.0537,9.0512l-1.4316,5.4282-12.6494,48.15-.4981,1.8438C515.0266,114.7749,517.882,117.0767,525.5656,117.0679Zm33.0616-61.04,11.5517-.0137.9033.0093a2.7981,2.7981,0,0,1,2.4961,1.1123,4.7753,4.7753,0,0,1,.5733,3.4033c-.0615.3887-.3135,1.47-.9766,4.0972-.4365,1.7241-1.289,4.9121-1.85,6.5615a6.6545,6.6545,0,0,1-1.97,3.1,6.2263,6.2263,0,0,1-4.0938,1.6152l-11.9511.0132Z" fill="#fff"/><path d="M253.3386,45.4561c-6.228.0058-54.0029.0639-54.0029.0639l.0019.0049c-.0234,0-.0478-.001-.07-.001-5.1357.0308-12.1675,3.3125-13.6279,9.689l-6.22,23.3452c-1.2823,6.042,4.1709,8.12,8.0058,8.083l28.52-.0361c4.0005-.0054,4.76,2.3691,3.89,6.0967l-2.55,10.0312a4.7988,4.7988,0,0,1-4.8345,3.8955l-8.6616.0137c-3.6314.0039-3.0435-2.5869-2.5127-4.8721l.8628-3.289c1.0264-4.458-1.5742-5.1719-4.1563-5.1289,0,0-11.47-.0078-16.86.0215-5.1387.0293-6.7407,3.166-7.2813,5.5791l-2.5991,9.8945c-1.6308,6.4375,4.0689,8.4912,7.9033,8.456,0,0,43.2759-.0185,48.6675-.0488,5.2559-.0293,12.7969-2.7012,14.7056-10.206L249.22,81.3765c1.0264-4.4585-1.9033-5.0591-3.6938-5.1289l-33.36.039c-3.79-.1157-3.1577-2.7124-2.8291-4.2407,1.0635-4.0513,2.27-8.5825,2.27-8.5825.9126-2.5024,1.1084-5.44,5.1387-6.5688a9.2985,9.2985,0,0,1,1.1475-.2374,21.8546,21.8546,0,0,1,2.6342-.1572h0a18.29,18.29,0,0,1,4.48.353c2.4321.7413,3.5581,3.1114,2.5513,6.7686,0,0-.5762,2.1685-.5718,2.1548-1.0156,4.2314,2.4053,4.8735,3.4346,4.8716l16.6308-.02a6.5735,6.5735,0,0,0,5.7783-3.2475,8.5173,8.5173,0,0,0,.8653-2.3477c.2451-1.0444,3.71-14.6274,3.71-14.6274C258.2761,46.9907,256.3073,45.4522,253.3386,45.4561Z" fill="#fff"/><path d="M611.34,46.3042a4.767,4.767,0,1,1-.0215,0Zm.0029.77a4.1977,4.1977,0,0,0,.291,8.3784,4.1983,4.1983,0,0,0-.2686-8.3789Zm-.6973,7.0889-.8789.0273-.1767-5.52a9.7013,9.7013,0,0,1,1.5556-.18,2.8924,2.8924,0,0,1,1.7305.3613,1.3291,1.3291,0,0,1,.543,1.128,1.3783,1.3783,0,0,1-1.0352,1.376V51.4c.4883.0738.83.502.9668,1.3115a4.4854,4.4854,0,0,0,.3965,1.3521l-.9248.0308a4.1237,4.1237,0,0,1-.418-1.3965,1.0347,1.0347,0,0,0-1.2178-.9287l-.6172.02Zm-.0986-3.0566.6387-.0206c.7255-.0239,1.333-.3066,1.3125-.9882-.0157-.4829-.3838-.9566-1.3741-.9263a4.5413,4.5413,0,0,0-.6357.0654Z" fill="#fff"/><path d="M95.632,171.1275l-7.7851.0078L96.89,134.0874l12.3965-.01-.0239,17.1884a71.7131,71.7131,0,0,1-.6406,8.543l.1118.002a86.7587,86.7587,0,0,1,3.3086-8.5508l8.3672-17.1875,12.3423-.0088-9.0435,37.043-7.7832.0068,2.8452-11.6582c1.7959-7.3584,3.7593-14.7188,6.0557-22.0791h-.1109l-16.5742,33.7441-4.726.001.062-33.7285-.2779-.002c-1.2988,7.3594-2.9253,14.7188-4.7236,22.08Z" fill="#fff"/><path d="M165.8884,134.0376l7.7856-.0058-6.3071,25.8369c-2.0029,8.1982-5.9556,12.1025-16.1294,12.1093-10.2881.0088-12.3384-3.8935-10.3364-12.0927l6.3076-25.8321,7.7822-.0058-6.1611,25.24c-.8687,3.5576-1.4565,7.1123,3.8223,7.1074,5.06-.0039,6.2075-3.5586,7.0761-7.1142Z" fill="#fff"/><path d="M201.3361,145.2749c.8633-3.31,1.3257-6.5693-2.955-6.5664-2.6133,0-4.5108.94-5.125,3.459-.6885,2.8174,1.0483,3.9033,3.1572,5.2842,2.209,1.4267,6.2607,4.1943,7.9692,6.0674,2.1031,2.3193,2.3941,4.541,1.6123,7.7548-1.7143,7.0137-7.8305,10.6729-15.45,10.6778-9.3422.0078-11.5454-4.6367-9.9277-11.2569l.6631-2.7168,7.7852-.0029-.5328,2.1729c-1.0463,3.6054-.4619,6.2246,3.3745,6.2216,3.2784-.0029,5.2095-1.5351,5.8985-4.35a4.247,4.247,0,0,0-1.92-4.8867c-3.3721-2.8144-7.9356-4.8369-10.2-8.5381a8.1519,8.1519,0,0,1-.6162-5.6806c1.542-6.3194,6.39-9.7842,14.6191-9.79,12.4-.0078,9.9912,8.4873,9.1553,12.1455Z" fill="#fff"/><path d="M217.115,171.0464l9.0444-37.05,7.7847-.0039-9.0455,37.0449Z" fill="#fff"/><path d="M267.4265,157.8237c-.2232.6915-.458,1.4317-.6812,2.1231-2.0434,6.7637-5.8652,11.9551-14.541,11.9609-12.7881.0088-11.8623-7.206-9.4492-17.082l1.2886-5.2832c2.6382-9.4375,5.1855-16.4521,17.6377-16.459,6.9253.0947,10.0478,3.2539,9.06,9.5742a16.42,16.42,0,0,1-.521,2.8164l-7.6733.0039c.2441-2.37,1.6064-6.8144-2.2261-6.8125-6.1167.0049-7.1968,6.4756-7.897,9.34l-2.5068,10.2725c-.7471,3.0625-1.6865,8.0517,3.65,8.0468,4.2812,0,5.2744-6.126,6.021-8.498Z" fill="#fff"/><path d="M362.7287,157.7515c-.23.6933-.4658,1.4375-.6845,2.13-2.044,6.7656-5.8682,11.9541-14.54,11.957-12.791.0117-11.86-7.1982-9.4551-17.0781l1.294-5.2862c2.6367-9.4326,5.1836-16.45,17.6377-16.457,6.9248.0938,10.0469,3.252,9.0556,9.5742a16.3442,16.3442,0,0,1-.5146,2.8174l-7.6758.0039c.25-2.37,1.61-6.8164-2.2295-6.8144-6.11.0068-7.1924,6.4775-7.8926,9.34l-2.5107,10.2744c-.7451,3.0615-1.6875,8.0518,3.6543,8.0469,4.2822-.002,5.2734-6.1279,6.0205-8.4961Z" fill="#fff"/><path d="M370.04,171.2544l9.039-37.0488,7.7852-.0069-9.042,37.0489Z" fill="#fff"/><path d="M396.0715,133.8794l25.9658-.0195-1.3252,5.4336-9.0605.0078-7.72,31.61-7.7862.0039,7.7227-31.6093-9.1231.0068Z" fill="#fff"/><path d="M441.1242,143.5757a19.9878,19.9878,0,0,1,.4493,5.6787l.11.002A39.2591,39.2591,0,0,1,445.95,142.24l5.78-8.3994,8.5029-.0079L444.0266,155.13l-3.8457,15.7549-7.7862.0058,3.8487-15.7539-5.6426-21.2842,8.5039-.0029Z" fill="#fff"/><path d="M6.08.1216S84.5959.0176,98.6516,0c8.4673-.0117,10.29,4.8985,10.626,7.4478a24.8922,24.8922,0,0,1-.8179,7.4731L70.8069,155.4888c-1.1133,4.5908.018,7.9834,1.6918,10.0869,2.001,2.5147.7139,4.998-2.8159,5.1348l-.2563.0009-22.1314.0264c-4.0571.0391-9.8315-2.1572-8.4721-8.5547L76.3772,22.39c.7011-2.9112-.2276-5.5279-5.6695-5.8355l-12.12.0147L31.799,117.648c-.5312,2.5752-2.1313,6.0547-7.6958,6.0849-5.7021.0332-18.3334.0225-18.3334.0225-1.896-.0713-4.9942-.708-3.9082-5.4287l26.91-101.728-25.0869.0131C1.8245,16.4907-.491,15.7071.0916,12.54L2.3875,3.2847A3.9939,3.9939,0,0,1,6.08.1216Z" fill="#fff"/><path d="M311.2248,127.52c-.542,3.5284-1.7617,7.8282.5156,13.0518,1.7647,3.9844,3.9717,7.7187,5.3018,10.9307a20.27,20.27,0,0,1,1.12,13.5009C316.0363,172.0767,310.5,178.1763,307,181.439l-1.0967-.2881c2.751-3.2393,7.8653-8.4238,9.5323-14.9551a18.2315,18.2315,0,0,0-.73-11.3457c-1.6065-4.0185-5.2-7.8242-8.9619-9.1074l-11.5967,38.5508c-.92,3.0566-3.6118,5.3574-6.9014,6.6943a16.3367,16.3367,0,0,1-10.0395.8809,7.8148,7.8148,0,0,1-4.4492-2.9336,5.3487,5.3487,0,0,1-.77-4.8242c.84-2.7891,3.5981-5.07,6.8183-6.4219a15.7215,15.7215,0,0,1,9.69-1.1953c2.4008.6318,4.3569,1.5156,5.2446,2.997l15.771-52.4228Z" fill="#fff"/><path d="M498.5881,175.4234" fill="none" stroke="#e61f49"/><path d="M40.9348,169.7857" fill="none" stroke="#e61f49"/></svg>